<?xml version="1.0" encoding="UTF-8" standalone="no"?>
<!DOCTYPE svg PUBLIC "-//W3C//DTD SVG 1.1//EN" "http://www.w3.org/Graphics/SVG/1.1/DTD/svg11.dtd">
<svg width="100%" height="100%" viewBox="0 0 800 100" version="1.1" xmlns="http://www.w3.org/2000/svg" xmlns:xlink="http://www.w3.org/1999/xlink" xml:space="preserve" xmlns:serif="http://www.serif.com/" style="fill-rule:evenodd;clip-rule:evenodd;stroke-linejoin:round;stroke-miterlimit:2;">
    <g transform="matrix(1,0,0,1,100,0)">
        <g transform="matrix(109.638,0,0,109.638,27.8239,89.36)">
            <path d="M0.634,0L0.417,-0.718L0.23,-0.718L0.014,0L0.153,0L0.205,-0.189L0.437,-0.189L0.489,0L0.634,0ZM0.32,-0.604L0.322,-0.604L0.405,-0.304L0.237,-0.304L0.32,-0.604Z" style="fill-rule:nonzero;"/>
        </g>
        <g transform="matrix(109.638,0,0,109.638,107.64,89.36)">
            <path d="M0.635,0L0.478,-0.326C0.554,-0.357 0.603,-0.417 0.603,-0.511C0.603,-0.648 0.514,-0.718 0.324,-0.718L0.079,-0.718L0.079,0L0.217,0L0.217,-0.288L0.351,-0.288L0.482,0L0.635,0ZM0.217,-0.4L0.217,-0.602L0.332,-0.602C0.392,-0.602 0.464,-0.591 0.464,-0.502C0.464,-0.41 0.377,-0.4 0.325,-0.4L0.217,-0.4Z" style="fill-rule:nonzero;"/>
        </g>
        <g transform="matrix(109.638,0,0,109.638,188.882,89.36)">
            <path d="M0.485,-0.24C0.459,-0.141 0.404,-0.104 0.335,-0.104C0.231,-0.104 0.178,-0.188 0.178,-0.365C0.178,-0.526 0.239,-0.616 0.338,-0.616C0.406,-0.616 0.453,-0.582 0.478,-0.488L0.606,-0.512C0.572,-0.665 0.485,-0.73 0.34,-0.73C0.156,-0.73 0.04,-0.598 0.04,-0.365C0.04,-0.127 0.141,0.012 0.331,0.012C0.462,0.012 0.567,-0.034 0.616,-0.21L0.485,-0.24Z" style="fill-rule:nonzero;"/>
        </g>
        <g transform="matrix(109.638,0,0,109.638,268.15,89.36)">
            <path d="M0.634,0L0.417,-0.718L0.23,-0.718L0.014,0L0.153,0L0.205,-0.189L0.437,-0.189L0.489,0L0.634,0ZM0.32,-0.604L0.322,-0.604L0.405,-0.304L0.237,-0.304L0.32,-0.604Z" style="fill-rule:nonzero;"/>
        </g>
        <g transform="matrix(109.638,0,0,109.638,347.967,89.36)">
            <path d="M0.651,0L0.651,-0.718L0.522,-0.718L0.522,-0.238L0.52,-0.238L0.25,-0.718L0.079,-0.718L0.079,0L0.209,0L0.209,-0.525L0.211,-0.525L0.515,0L0.651,0Z" style="fill-rule:nonzero;"/>
        </g>
        <g transform="matrix(109.638,0,0,109.638,436.773,89.36)">
            <path d="M0.554,0L0.554,-0.116L0.217,-0.116L0.217,-0.314L0.45,-0.314L0.45,-0.426L0.217,-0.426L0.217,-0.602L0.543,-0.602L0.543,-0.718L0.079,-0.718L0.079,0L0.554,0Z" style="fill-rule:nonzero;"/>
        </g>
        <g transform="matrix(109.638,0,0,109.638,509.134,89.36)">
            <path d="M0.543,-0.565C0.503,-0.678 0.421,-0.73 0.291,-0.73C0.152,-0.73 0.052,-0.653 0.052,-0.533C0.052,-0.266 0.431,-0.354 0.431,-0.196C0.431,-0.133 0.379,-0.1 0.307,-0.1C0.222,-0.1 0.178,-0.142 0.158,-0.219L0.03,-0.179C0.074,-0.043 0.16,0.012 0.299,0.012C0.453,0.012 0.561,-0.063 0.561,-0.206C0.561,-0.47 0.185,-0.388 0.185,-0.534C0.185,-0.589 0.231,-0.62 0.293,-0.62C0.36,-0.62 0.401,-0.589 0.427,-0.523L0.543,-0.565Z" style="fill-rule:nonzero;"/>
        </g>
    </g>
</svg>
