<?xml version="1.0" encoding="UTF-8" standalone="no"?>
<!DOCTYPE svg PUBLIC "-//W3C//DTD SVG 1.1//EN" "http://www.w3.org/Graphics/SVG/1.1/DTD/svg11.dtd">
<svg width="100%" height="100%" viewBox="0 0 1488 696" version="1.1" xmlns="http://www.w3.org/2000/svg" xmlns:xlink="http://www.w3.org/1999/xlink" xml:space="preserve" xmlns:serif="http://www.serif.com/" style="fill-rule:evenodd;clip-rule:evenodd;stroke-linejoin:round;stroke-miterlimit:2;">
    <g transform="matrix(1,0,0,1,-3568,-186)">
        <g transform="matrix(1.488,0,0,0.696,3568,186)">
            <rect x="0" y="0" width="1000" height="1000" style="fill:white;"/>
        </g>
        <g transform="matrix(1.42382,0,0,1.42382,-1749.37,-24.2743)">
            <text x="3963.17px" y="324.643px" style="font-family:'TradeGothicNextLTPro-Bd', 'Trade Gothic Next LT Pro', sans-serif;font-weight:700;font-size:110px;">A</text>
        </g>
        <g transform="matrix(1.42382,0,0,1.42382,-1176.93,56.8692)">
            <text x="3963.17px" y="324.643px" style="font-family:'TradeGothicNextLTPro-Bd', 'Trade Gothic Next LT Pro', sans-serif;font-weight:700;font-size:110px;">E</text>
        </g>
        <g transform="matrix(1.42382,0,0,1.42382,-1295.17,-120.823)">
            <text x="3963.17px" y="324.643px" style="font-family:'TradeGothicNextLTPro-Bd', 'Trade Gothic Next LT Pro', sans-serif;font-weight:700;font-size:110px;">N</text>
        </g>
        <g transform="matrix(1.42382,0,0,1.42382,-1334.91,163.627)">
            <text x="3963.17px" y="324.643px" style="font-family:'TradeGothicNextLTPro-Bd', 'Trade Gothic Next LT Pro', sans-serif;font-weight:700;font-size:110px;">A</text>
        </g>
        <g transform="matrix(1.42382,0,0,1.42382,-1497.35,77.2439)">
            <text x="3963.17px" y="324.643px" style="font-family:'TradeGothicNextLTPro-Bd', 'Trade Gothic Next LT Pro', sans-serif;font-weight:700;font-size:110px;">C</text>
        </g>
        <g transform="matrix(1.42382,0,0,1.42382,-1569.97,-132.969)">
            <text x="3963.17px" y="324.643px" style="font-family:'TradeGothicNextLTPro-Bd', 'Trade Gothic Next LT Pro', sans-serif;font-weight:700;font-size:110px;">R</text>
        </g>
        <g transform="matrix(1.42382,0,0,1.42382,-996.972,-33.2728)">
            <text x="3963.17px" y="324.643px" style="font-family:'TradeGothicNextLTPro-Bd', 'Trade Gothic Next LT Pro', sans-serif;font-weight:700;font-size:110px;">S</text>
        </g>
        <g transform="matrix(1,0,0,1,2.4645,-63)">
            <ellipse cx="4309.53" cy="871" rx="425.465" ry="55"/>
        </g>
    </g>
</svg>
