<?xml version="1.0" encoding="UTF-8" standalone="no"?>
<!DOCTYPE svg PUBLIC "-//W3C//DTD SVG 1.1//EN" "http://www.w3.org/Graphics/SVG/1.1/DTD/svg11.dtd">
<svg width="100%" height="100%" viewBox="0 0 1280 951" version="1.1" xmlns="http://www.w3.org/2000/svg" xmlns:xlink="http://www.w3.org/1999/xlink" xml:space="preserve" xmlns:serif="http://www.serif.com/" style="fill-rule:evenodd;clip-rule:evenodd;stroke-linecap:round;stroke-linejoin:round;stroke-miterlimit:1.5;">
    <g transform="matrix(1,0,0,1,-5208,0.5)">
        <g transform="matrix(0.810056,0,0,0.810056,1084.82,-115.028)">
            <rect x="5090" y="142" width="358" height="358" style="fill:rgb(110,32,255);"/>
        </g>
        <g transform="matrix(0.810056,0,0,0.810056,1084.82,214.972)">
            <rect x="5090" y="142" width="358" height="358" style="fill:rgb(255,106,106);"/>
        </g>
        <g transform="matrix(0.810056,0,0,0.810056,1414.82,214.972)">
            <rect x="5090" y="142" width="358" height="358" style="fill:rgb(255,168,168);"/>
        </g>
        <g transform="matrix(0.810056,0,0,0.810056,1084.82,544.972)">
            <rect x="5090" y="142" width="358" height="358" style="fill:rgb(51,36,80);"/>
        </g>
        <g transform="matrix(0.810056,0,0,0.810056,1414.82,544.972)">
            <rect x="5090" y="142" width="358" height="358" style="fill:rgb(44,72,48);"/>
        </g>
        <g transform="matrix(0.810056,0,0,0.810056,1414.82,-115.028)">
            <rect x="5090" y="142" width="358" height="358" style="fill:rgb(63,191,140);"/>
        </g>
        <g transform="matrix(0.810056,0,0,0.810056,1744.82,-115.028)">
            <rect x="5090" y="142" width="358" height="358" style="fill:white;stroke:black;stroke-width:1.23px;"/>
        </g>
        <g transform="matrix(0.810056,0,0,0.810056,2074.82,-115.028)">
            <rect x="5090" y="142" width="358" height="358"/>
        </g>
    </g>
</svg>
